# xmcd CD database file
#
# Track frame offsets:
#	150
#	5280
#	27174
#	44626
#	49691
#	65509
#	85797
#	105715
#	113106
#	130589
#	134714
#	152345
#	159475
#	164269
#	179067
#	202038
#	223804
#
# Disc length: 3046 seconds
#
# Revision: 1
# Processed by: cddbd v1.5.1PL0 Copyright (c) Steve Scherf et al.
# Submitted via: CDex 1.51
#
DISCID=ec0be411
DTITLE=Lee Underwood - Phantom Light
DYEAR=2002
DGENRE=New Age
TTITLE0=Phantom Light: Magenta
TTITLE1=Nomad
TTITLE2=Sky Blue Mind
TTITLE3=Phantom Light: Emerald Green
TTITLE4=Brandy and Candlelight
TTITLE5=Yesterdays and Heartsongs
TTITLE6=Desert Sands White Sun
TTITLE7=Japanese Lantern
TTITLE8=Forest Lightstreams
TTITLE9=Ambrosial Hour: Coral Dawn
TTITLE10=Dark Star
TTITLE11=Ambrosial Hour: Twilight Orange
TTITLE12=Phantom Light: Burnished Amber
TTITLE13=The Quest
TTITLE14=Sonia's Song
TTITLE15=Santa Fe Remembered
TTITLE16=Phantom Light: Velvet Blue
EXTD=YEAR: 2002
EXTT0=
EXTT1=
EXTT2=
EXTT3=
EXTT4=
EXTT5=
EXTT6=
EXTT7=
EXTT8=
EXTT9=
EXTT10=
EXTT11=
EXTT12=
EXTT13=
EXTT14=
EXTT15=
EXTT16=
PLAYORDER=
